) (`-.                           (` .-') /`           ) (`-.
       ( OO ).                          `.( OO ),'            ( OO ).
      (_/.  _)-.-'),-----. ,--.     ,--./  .--.  .-'),-----.(_/.  _)-.
         `.'  ( OO'  .-.  '|  |.-') |      |  | ( OO'  .-.  '  `.'  /
             /Y   |  | |  ||  | OO )|  |   |  |,/   |  | |  |      /
             _) |  ||  ||  |`-' ||  |.'.|  |_)_) |  ||  |      |
        .'    _) |  | |  (|  '---.'|         |    |  | |  | .'    _)
       /  .'.    `'  '-'  '|      | |   ,'.   |    `'  '-'  '/  .'.  
      '--'   '--'   `-----' `------' '--'   '--'      `-----''--'   '--'


      â–€â–€â–€â–€â–€â–€â–€â–€â–€â–€â–€â–€â–€â–€â–€â–€â–€â–€â–€â–€â–€â–€â–€â–€â–€â–€â–€â–€â–€â–€â–€â–€â–€â–€â–€â–€â–€â–€â–€â–€â–€â–€â–€â–€â–€â–€â–€â–€â–€â–€â–€â–€â–€â–€â–€â–€â–€â–€â–€â–€â–€â–€â–€â–€â–€â–€â–€â–€â–€â–€

          â–ˆâ–‘â–‘â–‘â–‘â–‘â–‘â–‘â–‘â–‘â–‘â–‘â–‘â–‘â–‘â–‘â–‘â–‘â–‘â–‘â–‘â–‘â–‘â–‘â–‘â–‘â–‘â–‘â–‘â–‘â–‘â–‘â–‘â–‘â–‘â–‘â–‘â–‘â–‘â–‘â–‘â–‘â–‘â–‘â–‘â–‘â–‘â–‘â–‘â–‘â–‘â–‘â–‘â–‘â–ˆ
         â–ˆâ–ˆ Cloudy with a Chance of Meatballs[2009]R5-DvDrip-LW â–ˆâ–ˆ
          â–ˆâ–‘â–‘â–‘â–‘â–‘â–‘â–‘â–‘â–‘â–‘â–‘â–‘â–‘â–‘â–‘â–‘â–‘â–‘â–‘â–‘â–‘â–‘â–‘â–‘â–‘â–‘â–‘â–‘â–‘â–‘â–‘â–‘â–‘â–‘â–‘â–‘â–‘â–‘â–‘â–‘â–‘â–‘â–‘â–‘â–‘â–‘â–‘â–‘â–‘â–‘â–‘â–‘â–‘â–ˆ

File Name    : Cloudy with a Chance of Meatballs[2009]R5-DvDrip-LW
Type         : Movie
Format       : MP4
File Size    : 722 MB
Duration     : 01:26:09
Language     : English
Source       : DvD
Subtitles    : None
Genre        : Animation | Family
IMDB Link    : http://www.imdb.com/title/tt0844471/
IMDB Rating  : 7.5/10
IMDB Votes   : 4,068 Votes
     â–„â–„â–„â–„â–„â–„â–„â–„â–„â–„â–„â–„â–„â–„â–„â–„â–„â–„â–„â–„â–„â–„â–„â–„â–„â–„â–„â–„â–„â–„â–„â–„â–„â–„â–„â–„â–„â–„â–„â–„â–„â–„â–„â–„â–„â–„â–„â–„â–„â–„â–„â–„â–„â–„â–„â–„â–„â–„â–„â–„â–„â–„â–„â–„â–„â–„â–„â–„â–„â–„
 
                        â–ˆâ–‘â–‘â–‘â–‘â–‘â–‘â–‘â–‘â–‘â–‘â–‘â–‘â–‘â–‘â–‘â–‘â–‘â–‘â–‘â–‘â–‘â–‘â–‘â–‘â–ˆ
                       â–ˆâ–ˆ       Video Info       â–ˆâ–ˆ
                        â–ˆâ–‘â–‘â–‘â–‘â–‘â–‘â–‘â–‘â–‘â–‘â–‘â–‘â–‘â–‘â–‘â–‘â–‘â–‘â–‘â–‘â–‘â–‘â–‘â–‘â–ˆ

Format                           : MPEG-4 Visual
Format profile                   : Simple@L3
Format settings, BVOP            : No
Format settings, QPel            : No
Format settings, GMC             : No warppoints
Format settings, Matrix          : Default (H.263)
Codec ID                         : 20
Duration                         : 1h 26mn
Bit rate mode                    : Constant
Bit rate                         : 1 073 Kbps
Nominal bit rate                 : 1 024 Kbps
Width                            : 640 pixels
Height                           : 272 pixels
Display aspect ratio             : 2.35
Frame rate mode                  : Constant
Frame rate                       : 25.000 fps
Resolution                       : 24 bits
Colorimetry                      : 4:2:0
Scan type                        : Progressive
Bits/(Pixel*Frame)               : 0.246
Stream size                      : 661 MiB (92%)
Writing library                  : ZJMedia MPEG Encoder
     â–„â–„â–„â–„â–„â–„â–„â–„â–„â–„â–„â–„â–„â–„â–„â–„â–„â–„â–„â–„â–„â–„â–„â–„â–„â–„â–„â–„â–„â–„â–„â–„â–„â–„â–„â–„â–„â–„â–„â–„â–„â–„â–„â–„â–„â–„â–„â–„â–„â–„â–„â–„â–„â–„â–„â–„â–„â–„â–„â–„â–„â–„â–„â–„â–„â–„â–„â–„â–„â–„

                         â–ˆâ–‘â–‘â–‘â–‘â–‘â–‘â–‘â–‘â–‘â–‘â–‘â–‘â–‘â–‘â–‘â–‘â–‘â–‘â–‘â–‘â–‘â–‘â–‘â–‘â–ˆ
                        â–ˆâ–ˆ      Sound Info        â–ˆâ–ˆ
                         â–ˆâ–‘â–‘â–‘â–‘â–‘â–‘â–‘â–‘â–‘â–‘â–‘â–‘â–‘â–‘â–‘â–‘â–‘â–‘â–‘â–‘â–‘â–‘â–‘â–‘â–ˆ

Format                           : AAC
Format/Info                      : Advanced Audio Codec
Format version                   : Version 4
Format profile                   : LC
Format settings, SBR             : No
Codec ID                         : 40
Duration                         : 1h 26mn
Bit rate mode                    : Constant
Bit rate                         : 96.0 Kbps
Nominal bit rate                 : 48.0 Kbps
Channel(s)                       : 2 channels
Channel positions                : L R
Sampling rate                    : 24.0 KHz
Resolution                       : 16 bits
Stream size                      : 59.2 MiB (8%)
    â–„â–„â–„â–„â–„â–„â–„â–„â–„â–„â–„â–„â–„â–„â–„â–„â–„â–„â–„â–„â–„â–„â–„â–„â–„â–„â–„â–„â–„â–„â–„â–„â–„â–„â–„â–„â–„â–„â–„â–„â–„â–„â–„â–„â–„â–„â–„â–„â–„â–„â–„â–„â–„â–„â–„â–„â–„â–„â–„â–„â–„â–„â–„â–„â–„â–„â–„â–„â–„â–„

                          â–ˆâ–‘â–‘â–‘â–‘â–‘â–‘â–‘â–‘â–‘â–‘â–‘â–‘â–‘â–‘â–‘â–‘â–‘â–‘â–‘â–‘â–‘â–‘â–‘â–‘â–ˆ
                         â–ˆâ–ˆ          Plot          â–ˆâ–ˆ
                          â–ˆâ–‘â–‘â–‘â–‘â–‘â–‘â–‘â–‘â–‘â–‘â–‘â–‘â–‘â–‘â–‘â–‘â–‘â–‘â–‘â–‘â–‘â–‘â–‘â–‘â–ˆ

Inventor Flint Lockwood creates a machine that makes 
clouds rain food, enabling the down-and-out citizens 
of Chewandswallow to feed themselves. But when the 
falling food reaches gargantuan proportions, Flint 
must scramble to avert disaster. Can he regain control 
of the machine and put an end to the wild weather 
before the town is destroyed? Bill Hader and Anna Faris 
lend their vocal talents to this hilarious animated 
adventure.

Starring: Bill Hader, Anna Faris

Director: Phil Lord
    â–„â–„â–„â–„â–„â–„â–„â–„â–„â–„â–„â–„â–„â–„â–„â–„â–„â–„â–„â–„â–„â–„â–„â–„â–„â–„â–„â–„â–„â–„â–„â–„â–„â–„â–„â–„â–„â–„â–„â–„â–„â–„â–„â–„â–„â–„â–„â–„â–„â–„â–„â–„â–„â–„â–„â–„â–„â–„â–„â–„â–„â–„â–„â–„â–„â–„â–„â–„â–„â–„

ScreenShots 
http://imgshack.info/images/k21x4gf6l26lwx0ymkb.png 
http://imgshack.info/images/7sq24yhhmqhjd4ubj07.png 
http://imgshack.info/images/bl18t8k6mhqew7bx82h.png 
http://imgshack.info/images/e58lg6qs4o28e23j937.jpg 
http://highspeed.netai.net/